<?xml version="1.0" encoding="UTF-8"?>
<svg width="1278px" height="172px" viewBox="0 0 1278 172" version="1.1" xmlns="http://www.w3.org/2000/svg" xmlns:xlink="http://www.w3.org/1999/xlink">
    <title>component-1</title>
    <defs>
        <path d="M20,0 L1192,0 C1203.04569,-2.02906125e-15 1212,8.954305 1212,20 L1212,86 C1212,97.045695 1203.04569,106 1192,106 L20,106 C8.954305,106 1.3527075e-15,97.045695 0,86 L0,20 C-4.90542118e-15,8.954305 8.954305,2.02906125e-15 20,0 Z" id="path-1"></path>
        <filter x="-4.1%" y="-46.7%" width="108.2%" height="193.4%" filterUnits="objectBoundingBox" id="filter-2">
            <feMorphology radius="8.5" operator="erode" in="SourceAlpha" result="shadowSpreadOuter1"></feMorphology>
            <feOffset dx="0" dy="0" in="shadowSpreadOuter1" result="shadowOffsetOuter1"></feOffset>
            <feGaussianBlur stdDeviation="25" in="shadowOffsetOuter1" result="shadowBlurOuter1"></feGaussianBlur>
            <feColorMatrix values="0 0 0 0 0   0 0 0 0 0   0 0 0 0 0  0 0 0 0.5 0" type="matrix" in="shadowBlurOuter1"></feColorMatrix>
        </filter>
        <linearGradient x1="50%" y1="0%" x2="50%" y2="100%" id="linearGradient-3">
            <stop stop-color="#42CBF7" offset="0%"></stop>
            <stop stop-color="#4A098D" offset="100%"></stop>
        </linearGradient>
    </defs>
    <g id="Page-1" stroke="none" stroke-width="1" fill="none" fill-rule="evenodd">
        <g id="Desktop-HD-Copy" transform="translate(-81.000000, -373.000000)">
            <g id="Rectangle" transform="translate(114.000000, 406.000000)">
                <g>
                    <use fill="black" fill-opacity="1" filter="url(#filter-2)" xlink:href="#path-1"></use>
                    <use fill="#FDFDFD" fill-rule="evenodd" xlink:href="#path-1"></use>
                </g>
                <path d="M20,0 L20,0 L20,0 L20,106 C8.954305,106 1.3527075e-15,97.045695 0,86 L0,20 C-1.3527075e-15,8.954305 8.954305,2.02906125e-15 20,0 Z" fill="url(#linearGradient-3)"></path>
            </g>
        </g>
    </g>
</svg>